<svg xmlns="http://www.w3.org/2000/svg" xmlns:xlink="http://www.w3.org/1999/xlink" width="192" zoomAndPan="magnify" viewBox="0 0 144 143.999998" height="192" preserveAspectRatio="xMidYMid meet" version="1.0"><defs><clipPath id="aafacf0173"><path d="M 1 0.417969 L 52.410156 0.417969 L 52.410156 107.511719 L 1 107.511719 Z M 1 0.417969 " clip-rule="nonzero"/></clipPath><clipPath id="aa310f8467"><path d="M 39 39 L 52.410156 39 L 52.410156 70 L 39 70 Z M 39 39 " clip-rule="nonzero"/></clipPath><clipPath id="863ddb580e"><path d="M 3.902344 0.417969 L 68.851562 0.417969 L 68.851562 86 L 3.902344 86 Z M 3.902344 0.417969 " clip-rule="nonzero"/></clipPath><clipPath id="71692ffd45"><path d="M 23 101 L 48 101 L 48 109.53125 L 23 109.53125 Z M 23 101 " clip-rule="nonzero"/></clipPath><clipPath id="3d68661d11"><rect x="0" width="106" y="0" height="110"/></clipPath></defs><rect x="-14.4" width="172.8" fill="#ffffff" y="-14.4" height="172.799997" fill-opacity="1"/><rect x="-14.4" width="172.8" fill="#000000" y="-14.4" height="172.799997" fill-opacity="1"/><g transform="matrix(1, 0, 0, 1, 38, 17)"><g clip-path="url(#3d68661d11)"><g clip-path="url(#aafacf0173)"><path fill="#ffffff" d="M 52.546875 107.542969 C 53.910156 107.597656 55.246094 107.597656 56.582031 107.542969 C 56.582031 107.542969 56.582031 107.542969 56.636719 107.542969 C 64.316406 107.265625 71.550781 105.34375 78.089844 102.171875 C 88.609375 97.050781 97.207031 88.539062 102.464844 78.101562 L 54.632812 78.101562 C 40.414062 78.101562 29.0625 65.777344 30.675781 51.253906 C 31.761719 41.625 38.691406 33.582031 47.789062 30.882812 C 48.011719 30.800781 48.261719 30.746094 48.484375 30.691406 C 48.984375 30.550781 49.484375 30.4375 49.988281 30.328125 C 50.597656 30.214844 51.238281 30.105469 51.878906 30.050781 C 61.617188 28.964844 70.355469 33.722656 75.058594 41.207031 C 79.398438 48.164062 86.492188 52.839844 94.453125 53.8125 C 95.480469 53.921875 96.511719 54.007812 97.539062 54.007812 L 108.167969 54.007812 C 108.167969 24.402344 86.132812 0.417969 54.578125 0.417969 C 23.023438 0.417969 -0.988281 26.488281 1.183594 57.820312 C 3.046875 84.863281 25.445312 106.511719 52.546875 107.542969 Z M 52.546875 107.542969 " fill-opacity="1" fill-rule="nonzero"/></g><g clip-path="url(#aa310f8467)"><path fill="#ffffff" d="M 69.304688 51.226562 C 69.535156 52.191406 69.664062 53.167969 69.699219 54.15625 C 69.734375 55.144531 69.675781 56.128906 69.515625 57.105469 C 69.359375 58.085938 69.105469 59.039062 68.757812 59.964844 C 68.414062 60.894531 67.980469 61.777344 67.460938 62.621094 C 66.941406 63.464844 66.34375 64.246094 65.667969 64.972656 C 64.992188 65.695312 64.253906 66.347656 63.449219 66.929688 C 62.648438 67.507812 61.796875 68.003906 60.894531 68.414062 C 59.996094 68.824219 59.0625 69.144531 58.097656 69.371094 C 57.132812 69.601562 56.15625 69.730469 55.167969 69.769531 C 54.179688 69.804688 53.195312 69.742188 52.21875 69.582031 C 51.238281 69.425781 50.289062 69.171875 49.359375 68.828125 C 48.433594 68.480469 47.546875 68.046875 46.703125 67.527344 C 45.863281 67.007812 45.078125 66.410156 44.351562 65.734375 C 43.628906 65.058594 42.976562 64.320312 42.398438 63.519531 C 41.816406 62.714844 41.324219 61.863281 40.910156 60.960938 C 40.5 60.0625 40.179688 59.128906 39.953125 58.164062 C 39.722656 57.203125 39.59375 56.226562 39.558594 55.234375 C 39.523438 54.246094 39.582031 53.261719 39.742188 52.285156 C 39.898438 51.308594 40.152344 50.355469 40.5 49.425781 C 40.84375 48.5 41.277344 47.613281 41.796875 46.773438 C 42.316406 45.929688 42.914062 45.144531 43.589844 44.421875 C 44.265625 43.695312 45.003906 43.042969 45.808594 42.464844 C 46.609375 41.886719 47.460938 41.390625 48.363281 40.976562 C 49.261719 40.566406 50.195312 40.246094 51.160156 40.019531 C 52.125 39.792969 53.101562 39.660156 54.089844 39.625 C 55.078125 39.589844 56.0625 39.652344 57.039062 39.808594 C 58.019531 39.96875 58.96875 40.21875 59.898438 40.566406 C 60.824219 40.910156 61.710938 41.34375 62.554688 41.863281 C 63.394531 42.386719 64.179688 42.984375 64.90625 43.65625 C 65.628906 44.332031 66.28125 45.070312 66.859375 45.875 C 67.441406 46.675781 67.933594 47.53125 68.347656 48.429688 C 68.757812 49.332031 69.078125 50.261719 69.304688 51.226562 Z M 69.304688 51.226562 " fill-opacity="1" fill-rule="nonzero"/></g><path stroke-linecap="butt" transform="matrix(0.0430905, 0, 0, 0.0431637, 3.901613, 0.430741)" fill-opacity="1" fill="#000000" fill-rule="evenodd" stroke-linejoin="miter" d="M 460.167546 1969.043997 L 1015.049674 1969.043997 L 1015.049674 2067.777962 L 460.167546 2067.777962 Z M 460.167546 1969.043997 " stroke="#000000" stroke-width="2.16" stroke-opacity="1" stroke-miterlimit="2.613"/><path stroke-linecap="butt" transform="matrix(0.0430905, 0, 0, 0.0431637, 3.901613, 0.430741)" fill-opacity="1" fill="#000000" fill-rule="evenodd" stroke-linejoin="miter" d="M 460.167546 2096.828011 L 1015.049674 2096.828011 L 1015.049674 2146.240243 L 460.167546 2146.240243 Z M 460.167546 2096.828011 " stroke="#000000" stroke-width="2.16" stroke-opacity="1" stroke-miterlimit="2.613"/><path stroke-linecap="butt" transform="matrix(0.0430905, 0, 0, 0.0431637, 3.901613, 0.430741)" fill-opacity="1" fill="#000000" fill-rule="evenodd" stroke-linejoin="miter" d="M 460.167546 2178.548241 L 1015.049674 2178.548241 L 1015.049674 2227.869974 L 460.167546 2227.869974 Z M 460.167546 2178.548241 " stroke="#000000" stroke-width="2.16" stroke-opacity="1" stroke-miterlimit="2.613"/><path stroke-linecap="butt" transform="matrix(0.0430905, 0, 0, 0.0431637, 3.901613, 0.430741)" fill-opacity="1" fill="#000000" fill-rule="evenodd" stroke-linejoin="miter" d="M 460.167546 2264.340907 L 1015.049674 2264.340907 L 1015.049674 2313.662641 L 460.167546 2313.662641 Z M 460.167546 2264.340907 " stroke="#000000" stroke-width="2.16" stroke-opacity="1" stroke-miterlimit="2.613"/><g clip-path="url(#863ddb580e)"><path stroke-linecap="butt" transform="matrix(0.0430905, 0, 0, 0.0431637, 3.901613, 0.430741)" fill="none" stroke-linejoin="miter" d="M 402.875354 1786.870328 L 454.093848 1838.092532 C 460.34885 1844.427433 463.61233 1852.029315 463.61233 1860.988676 L 463.61233 1929.405613 M 957.757482 1054.646208 L 904.363335 1016.998793 M 958.845309 1142.067849 L 956.669656 961.704153 C 956.579004 953.921273 954.131394 947.314876 949.145523 941.341969 L 905.995075 889.486275 M 1068.897082 1512.0261 L 1243.039962 1349.671623 M 430.977537 1124.963615 L 431.158841 987.315254 M 1011.151629 1929.405613 L 1011.151629 1805.965531 C 1011.151629 1797.096669 1014.324456 1789.404289 1020.67011 1783.069387 L 1075.42404 1728.317738 M 944.612913 1929.405613 L 944.612913 1709.584529 C 944.612913 1699.90118 948.420306 1691.48481 955.763134 1685.149909 L 1059.469253 1595.375304 C 1066.993386 1588.768907 1070.89143 1579.990543 1070.619474 1569.945199 L 1066.35882 1420.62252 C 1066.086864 1411.391664 1069.259691 1403.337289 1075.786649 1396.82139 L 1122.109924 1350.48611 C 1128.455579 1344.151209 1131.628406 1336.36833 1131.628406 1327.408969 L 1131.265797 1285.960613 M 894.119637 1929.405613 L 897.292464 1593.746329 C 897.383116 1584.786969 900.646595 1577.094588 907.082901 1570.850185 L 948.329653 1530.759308 C 954.76596 1524.514905 958.120091 1516.641528 958.120091 1507.591668 L 958.120091 1434.740301 M 859.399843 1239.715832 L 1007.616193 1239.715832 C 1017.225327 1239.715832 1025.474677 1236.005389 1031.820331 1228.856001 L 1092.647959 1160.348565 C 1098.993613 1153.289675 1107.061659 1149.579233 1116.489488 1149.488734 L 1311.210418 1147.316768 C 1320.184986 1147.226269 1327.799771 1143.877821 1334.054773 1137.54292 L 1383.278918 1086.954206 M 1106.427094 997.179601 L 1243.311918 997.179601 C 1252.01453 997.179601 1259.538663 994.102649 1265.793665 988.039243 L 1439.211327 819.349865 M 1012.058151 1089.850161 L 1012.058151 752.652402 C 1012.058151 743.783539 1015.230978 736.091159 1021.48598 729.846756 L 1188.829945 561.700369 C 1195.084947 555.365468 1198.257774 547.763586 1198.257774 538.894724 L 1198.257774 408.938743 C 1198.257774 399.979383 1201.430601 392.377501 1207.776255 386.042599 L 1256.456488 337.354356 M 825.042659 1929.405613 L 828.306138 1283.60765 C 828.306138 1274.648289 831.569617 1266.955908 838.005924 1260.711505 L 1185.74777 919.350811 C 1192.365381 912.834912 1195.62886 904.780537 1195.447556 895.459182 L 1191.91212 742.064066 C 1191.640163 732.471215 1195.175599 724.145345 1202.246471 717.629446 L 1362.610216 568.940257 M 891.037462 309.118795 L 890.040288 205.950398 C 889.949635 196.448046 893.485071 188.303172 900.465291 181.877772 L 972.171182 115.7233 M 801.473086 399.707887 L 801.473086 493.011937 C 801.473086 501.066312 804.011348 508.034703 809.269176 514.188608 L 856.770929 569.211753 C 862.028757 575.365657 864.657671 582.334049 864.657671 590.388423 L 864.657671 707.946096 M 829.21266 81.333835 L 829.21266 238.801388 C 829.21266 248.213241 832.838748 256.358115 839.818968 262.693016 L 919.048992 334.5489 C 925.938559 340.883801 929.564648 348.847677 929.6553 358.259531 L 932.55617 644.597081 M 770.288729 1929.405613 L 770.288729 808.218538 C 770.288729 798.897183 773.824165 790.842808 780.713732 784.417408 L 1015.956196 567.763775 C 1022.845763 561.338375 1026.381199 553.284 1026.381199 543.962645 L 1026.381199 278.258774 C 1026.381199 269.389912 1029.644678 261.697532 1035.89968 255.453129 L 1086.211652 205.135911 M 556.168228 425.952479 L 556.168228 309.842784 C 556.168228 299.525944 551.907574 290.74758 543.839528 284.412679 L 469.142114 225.76959 C 461.074068 219.434689 456.813414 210.565826 456.813414 200.248987 L 456.813414 126.67363 M 461.708633 510.387667 L 639.84021 351.200641 C 646.911082 344.865739 650.627822 336.630367 650.627822 327.128015 L 650.627822 79.252367 M 622.797596 717.810443 L 696.135228 659.981842 C 704.112621 653.737439 708.373275 645.049574 708.554579 634.913731 L 710.005014 495.636396 M 678.639353 995.188632 L 682.628049 865.504148 C 682.900006 855.911297 679.455222 847.494928 672.475003 840.979029 L 634.038469 804.689093 C 627.420858 798.44469 623.976075 790.752309 623.885423 781.70245 L 620.803248 593.103381 M 467.147765 726.136314 L 328.721853 595.456345 C 322.285547 589.392939 318.931415 581.881556 318.568806 573.103192 L 316.121197 506.405729 C 315.84924 497.898861 312.676413 490.658973 306.693368 484.686066 L 176.154197 354.096596 M 711.727406 1929.405613 L 708.373275 1036.817985 C 708.373275 1027.587129 704.837839 1019.623252 698.038924 1013.288351 L 479.023204 809.666515 C 472.405593 803.512611 468.960809 795.820231 468.688853 786.770371 L 459.261024 411.7442 C 458.989067 403.418329 456.088197 396.26894 450.286456 390.205535 L 321.560329 255.36263 M 521.26713 1337.997304 L 607.658678 1259.173029 C 614.638898 1252.747629 618.174334 1244.693254 618.174334 1235.190902 L 618.174334 1164.601999 M 521.26713 1270.123359 L 525.074522 1071.026453 M 350.297077 890.210264 L 351.747512 1026.139151 C 351.838165 1035.370008 355.3736 1043.333884 362.172516 1049.578287 L 420.733838 1103.786944 C 427.623405 1110.121846 431.158841 1118.176221 431.158841 1127.588074 L 431.158841 1168.855433 C 431.158841 1177.905292 434.422321 1185.688171 440.949279 1192.023073 L 511.476692 1260.621007 C 518.003651 1266.955908 521.26713 1274.738787 521.26713 1283.788647 L 521.26713 1393.925435 M 92.663519 547.220594 L 209.332903 662.334805 C 215.859862 668.760205 219.123341 676.81458 218.942037 685.954938 L 214.409426 904.418543 M 74.714383 766.860681 L 278.137924 967.134068 C 284.846187 973.740465 288.109667 981.975837 287.747058 991.387691 L 282.126621 1139.986382 C 281.764012 1149.307737 284.93684 1157.45261 291.55445 1164.059008 L 641.018689 1513.564576 C 647.454995 1519.899477 650.627822 1527.682356 650.53717 1536.732216 L 647.364343 1929.405613 M 79.065689 978.808387 L 157.479844 978.808387 C 166.091803 978.808387 173.434631 981.704342 179.689633 987.58675 L 284.12097 1085.777724 M 161.01528 1213.923733 L 245.593784 1298.449419 C 252.120742 1304.965318 260.098136 1308.132768 269.344661 1307.951771 L 303.429889 1306.956287 C 312.857718 1306.684791 321.19772 1310.123737 327.724679 1317.001631 L 476.938203 1473.654696 C 483.193205 1480.261093 490.898642 1483.609541 499.963863 1483.70004 L 612.64455 1485.148017 M 530.785611 1618.995437 L 579.193887 1666.054706 C 585.811498 1672.389607 589.074977 1680.353483 589.074977 1689.493841 L 587.443237 1929.405613 M 289.46945 1426.776424 L 369.424692 1509.582638 C 375.407737 1515.82704 378.489912 1523.338424 378.489912 1532.026289 L 378.489912 1604.425164 C 378.489912 1613.65602 381.934696 1621.619896 388.642959 1627.954798 L 511.38604 1743.521502 C 518.184955 1749.856403 521.629739 1758.001277 521.539087 1767.322632 L 520.088651 1929.405613 M 378.943173 1719.720372 C 399.702527 1719.720372 416.473185 1736.55311 416.473185 1757.367787 C 416.473185 1778.091964 399.702527 1794.924703 378.943173 1794.924703 C 358.183819 1794.924703 341.322509 1778.091964 341.322509 1757.367787 C 341.322509 1736.55311 358.183819 1719.720372 378.943173 1719.720372 Z M 1102.619701 1664.878224 C 1123.379055 1664.878224 1140.240365 1681.710962 1140.240365 1702.43514 C 1140.240365 1723.249817 1123.379055 1740.082555 1102.619701 1740.082555 C 1092.919915 1740.082555 1083.945347 1736.281614 1077.327737 1730.218208 C 1076.693171 1729.584718 1076.058606 1728.951228 1075.42404 1728.317738 C 1068.987734 1721.620842 1065.089689 1712.480484 1065.089689 1702.525639 C 1065.089689 1681.710962 1081.860347 1664.878224 1102.619701 1664.878224 Z M 1270.326275 1286.322607 C 1291.085629 1286.322607 1307.856286 1303.155346 1307.856286 1323.879524 C 1307.856286 1344.603702 1291.085629 1361.43644 1270.326275 1361.43644 C 1259.629315 1361.43644 1249.929529 1356.91151 1243.039962 1349.762121 L 1243.039962 1349.671623 C 1236.694308 1342.974727 1232.705611 1333.924868 1232.705611 1323.879524 C 1232.705611 1303.155346 1249.56692 1286.322607 1270.326275 1286.322607 Z M 1131.356449 1210.756282 C 1152.025151 1210.756282 1168.886461 1227.58902 1168.886461 1248.403697 C 1168.886461 1269.127875 1152.025151 1285.960613 1131.356449 1285.960613 L 1131.265797 1285.960613 C 1130.903188 1285.960613 1130.449927 1285.960613 1129.996666 1285.870114 C 1111.956878 1285.327123 1097.180569 1271.933331 1094.279698 1254.557601 C 1093.91709 1252.566632 1093.735785 1250.485164 1093.735785 1248.403697 C 1093.735785 1236.276885 1099.446874 1225.507553 1108.33079 1218.720158 C 1114.676444 1213.742735 1122.653838 1210.756282 1131.356449 1210.756282 Z M 955.58183 1359.716967 C 976.250532 1359.716967 993.111841 1376.549705 993.111841 1397.273883 C 993.111841 1417.183574 977.610315 1433.47332 958.120091 1434.740301 L 957.576178 1434.830799 C 956.85096 1434.830799 956.216395 1434.830799 955.58183 1434.830799 C 934.822475 1434.830799 917.961166 1417.998061 917.961166 1397.273883 C 917.961166 1376.549705 934.822475 1359.716967 955.58183 1359.716967 Z M 874.810718 956.274237 C 895.570072 956.274237 912.340729 973.016477 912.340729 993.831153 C 912.340729 1002.519018 909.349207 1010.573393 904.453988 1016.908295 L 904.363335 1016.998793 C 897.473768 1025.777157 886.776808 1031.38807 874.810718 1031.38807 C 854.051363 1031.38807 837.190054 1014.555331 837.190054 993.831153 C 837.190054 973.016477 854.051363 956.274237 874.810718 956.274237 Z M 884.601155 824.055792 C 905.36051 824.055792 922.221819 840.88853 922.221819 861.612708 C 922.221819 882.336886 905.36051 899.169624 884.601155 899.169624 C 863.932453 899.169624 847.071144 882.336886 847.071144 861.612708 C 847.071144 840.88853 863.932453 824.055792 884.601155 824.055792 Z M 1408.298926 1021.433224 C 1429.05828 1021.433224 1445.828938 1038.175464 1445.828938 1058.990141 C 1445.828938 1079.714318 1429.05828 1096.547057 1408.298926 1096.547057 C 1398.689793 1096.547057 1389.896529 1092.927113 1383.278918 1086.954206 C 1382.644353 1086.411214 1382.10044 1085.868223 1381.556526 1085.325231 C 1374.848263 1078.537837 1370.768914 1069.216482 1370.768914 1058.990141 C 1370.768914 1038.175464 1387.539572 1021.433224 1408.298926 1021.433224 Z M 1465.591118 755.095864 C 1486.350472 755.095864 1503.211781 771.928602 1503.211781 792.65278 C 1503.211781 813.376958 1486.350472 830.209696 1465.591118 830.209696 C 1455.347419 830.209696 1446.010242 826.046761 1439.211327 819.349865 L 1438.758066 818.897372 C 1432.140455 812.109977 1428.061106 802.879121 1428.061106 792.65278 C 1428.061106 771.928602 1444.831763 755.095864 1465.591118 755.095864 Z M 1281.6578 271.923873 C 1302.417154 271.923873 1319.187811 288.666113 1319.187811 309.480789 C 1319.187811 330.204967 1302.417154 347.037705 1281.6578 347.037705 C 1272.139319 347.037705 1263.527359 343.50826 1256.909749 337.71635 L 1256.456488 337.354356 C 1248.841703 330.476463 1244.037136 320.521618 1244.037136 309.480789 C 1244.037136 288.666113 1260.898446 271.923873 1281.6578 271.923873 Z M 1387.992833 503.690771 C 1408.752187 503.690771 1425.613497 520.523509 1425.613497 541.247687 C 1425.613497 561.971865 1408.752187 578.804603 1387.992833 578.804603 C 1378.565004 578.804603 1370.043697 575.365657 1363.426086 569.664245 L 1362.610216 568.940257 C 1355.176736 562.062364 1350.462821 552.198017 1350.462821 541.247687 C 1350.462821 520.523509 1367.233479 503.690771 1387.992833 503.690771 Z M 617.630421 518.080047 C 638.389775 518.080047 655.251084 534.912786 655.251084 555.636963 C 655.251084 575.275158 640.293471 591.293409 621.165857 593.103381 L 620.803248 593.103381 C 619.715421 593.19388 618.718247 593.284378 617.630421 593.284378 C 596.871066 593.284378 580.100409 576.45164 580.100409 555.636963 C 580.100409 534.912786 596.871066 518.080047 617.630421 518.080047 Z M 707.466753 420.613062 C 728.226107 420.613062 744.996764 437.4458 744.996764 458.169978 C 744.996764 478.079669 729.58589 494.369416 710.005014 495.636396 L 709.279797 495.726895 C 708.645231 495.726895 708.101318 495.726895 707.466753 495.726895 C 686.707399 495.726895 669.936741 478.984655 669.936741 458.169978 C 669.936741 437.4458 686.707399 420.613062 707.466753 420.613062 Z M 803.558087 323.779567 C 824.317441 323.779567 841.088098 340.521807 841.088098 361.336483 C 841.088098 382.060661 824.317441 398.8934 803.558087 398.8934 C 782.798733 398.8934 765.937423 382.060661 765.937423 361.336483 C 765.937423 340.521807 782.798733 323.779567 803.558087 323.779567 Z M 997.19119 50.11182 C 1017.950544 50.11182 1034.811854 66.944559 1034.811854 87.668737 C 1034.811854 108.483413 1017.950544 125.225653 997.19119 125.225653 C 988.397927 125.225653 980.239228 122.239199 973.893574 117.080779 C 973.259009 116.628286 972.715096 116.175793 972.171182 115.7233 C 964.465745 108.845407 959.661179 98.800064 959.661179 87.668737 C 959.661179 66.944559 976.431836 50.11182 997.19119 50.11182 Z M 1115.220357 122.420196 C 1140.87493 122.420196 1161.634285 143.234873 1161.634285 168.845975 C 1161.634285 194.547575 1140.87493 215.362252 1115.220357 215.362252 C 1105.06731 215.362252 1095.639481 212.104303 1088.024697 206.583888 C 1087.390131 206.131395 1086.755566 205.588404 1086.211652 205.135911 C 1075.514693 196.629043 1068.715778 183.506747 1068.715778 168.845975 C 1068.715778 143.234873 1089.475132 122.420196 1115.220357 122.420196 Z M 832.838748 6.310501 C 853.598102 6.310501 870.36876 23.143239 870.36876 43.867417 C 870.36876 64.682094 853.598102 81.424334 832.838748 81.424334 L 832.294835 81.424334 C 831.207008 81.424334 830.209834 81.424334 829.21266 81.333835 C 810.175698 79.523863 795.308736 63.415113 795.308736 43.867417 C 795.308736 23.143239 812.079394 6.310501 832.838748 6.310501 Z M 650.809127 4.138535 C 671.568481 4.138535 688.42979 20.971273 688.42979 41.695451 C 688.42979 62.419629 671.568481 79.252367 650.809127 79.252367 L 649.993257 79.252367 C 629.596511 78.799874 613.279115 62.148133 613.279115 41.695451 C 613.279115 20.971273 630.140425 4.138535 650.809127 4.138535 Z M 455.997545 50.292817 C 476.756899 50.292817 493.527556 67.125556 493.527556 87.849734 C 493.527556 108.66441 476.756899 125.497149 455.997545 125.497149 C 435.23819 125.497149 418.467533 108.66441 418.467533 87.849734 C 418.467533 67.125556 435.23819 50.292817 455.997545 50.292817 Z M 150.31832 289.299603 C 171.077674 289.299603 187.848331 306.132341 187.848331 326.856519 C 187.848331 337.625852 183.406373 347.309201 176.154197 354.096596 L 175.700936 354.549089 C 168.992673 360.702993 160.108757 364.413435 150.31832 364.413435 C 129.558965 364.413435 112.697656 347.671196 112.697656 326.856519 C 112.697656 306.132341 129.558965 289.299603 150.31832 289.299603 Z M 291.373146 173.461403 C 317.027719 173.461403 337.877725 194.27608 337.877725 219.97768 C 337.877725 234.095461 331.532071 246.765264 321.560329 255.36263 C 320.653807 256.086619 319.747285 256.720109 318.840763 257.444098 C 311.135326 263.055011 301.707497 266.403459 291.373146 266.403459 C 265.718573 266.403459 244.959219 245.588782 244.959219 219.97768 C 244.959219 194.27608 265.718573 173.461403 291.373146 173.461403 Z M 618.355638 1089.488167 C 639.114993 1089.488167 655.976302 1106.230406 655.976302 1127.045083 C 655.976302 1147.769261 639.114993 1164.601999 618.355638 1164.601999 L 618.174334 1164.601999 C 617.086507 1164.601999 616.089333 1164.511501 615.092159 1164.421002 C 595.873892 1162.701529 580.825627 1146.592779 580.825627 1127.045083 C 580.825627 1106.230406 597.596284 1089.488167 618.355638 1089.488167 Z M 524.893218 995.912621 C 545.56192 995.912621 562.42323 1012.745359 562.42323 1033.469537 C 562.42323 1054.193715 545.743225 1070.935955 525.074522 1071.026453 L 524.893218 1071.026453 C 519.363434 1071.026453 514.105606 1069.849972 509.391692 1067.768504 C 496.337774 1061.795597 487.272554 1048.763799 487.272554 1033.469537 C 487.272554 1024.419678 490.445381 1016.184306 495.793861 1009.668407 C 502.683429 1001.252038 513.108432 995.912621 524.893218 995.912621 Z M 433.243842 912.201422 C 454.003196 912.201422 470.864506 929.03416 470.864506 949.758338 C 470.864506 970.573015 454.003196 987.315254 433.243842 987.315254 C 432.609277 987.315254 431.884059 987.315254 431.158841 987.315254 C 411.396661 986.138773 395.71383 969.849026 395.71383 949.758338 C 395.71383 929.03416 412.57514 912.201422 433.243842 912.201422 Z M 350.115773 815.096431 C 370.875127 815.096431 387.645784 831.929169 387.645784 852.653347 C 387.645784 872.382041 372.506867 888.49079 353.2886 890.119765 C 352.291426 890.210264 351.294251 890.210264 350.297077 890.210264 L 350.115773 890.210264 C 329.356419 890.210264 312.585761 873.377525 312.585761 852.653347 C 312.585761 831.929169 329.356419 815.096431 350.115773 815.096431 Z M 66.283728 482.876094 C 87.043083 482.876094 103.81374 499.708833 103.81374 520.433011 C 103.81374 530.930847 99.553087 540.4332 92.663519 547.220594 L 92.482215 547.401591 C 85.6833 553.91749 76.436775 557.989927 66.283728 557.989927 C 45.524374 557.989927 28.753717 541.157189 28.753717 520.433011 C 28.753717 499.708833 45.524374 482.876094 66.283728 482.876094 Z M 47.790679 703.240169 C 68.550034 703.240169 85.320691 719.982409 85.320691 740.797086 C 85.320691 750.932928 81.331994 760.163785 74.714383 766.860681 L 74.714383 766.951179 C 67.824816 773.919571 58.306335 778.354002 47.790679 778.354002 C 27.031325 778.354002 10.170015 761.521264 10.170015 740.797086 C 10.170015 719.982409 27.031325 703.240169 47.790679 703.240169 Z M 41.716982 937.631527 C 62.476336 937.631527 79.246993 954.464265 79.246993 975.188443 C 79.246993 976.364925 79.246993 977.631905 79.065689 978.808387 C 79.065689 979.532375 78.975037 980.256364 78.793732 980.980353 C 75.983514 998.989573 60.481988 1012.745359 41.716982 1012.745359 C 20.957628 1012.745359 4.18697 995.912621 4.18697 975.188443 C 4.18697 954.464265 20.957628 937.631527 41.716982 937.631527 Z M 132.822445 1149.488734 C 153.491147 1149.488734 170.352456 1166.321472 170.352456 1187.04565 C 170.352456 1207.769828 153.491147 1224.602567 132.822445 1224.602567 C 112.06309 1224.602567 95.201781 1207.769828 95.201781 1187.04565 C 95.201781 1166.321472 112.06309 1149.488734 132.822445 1149.488734 Z M 262.908354 1362.70342 C 283.667709 1362.70342 300.438366 1379.44566 300.438366 1400.260337 C 300.438366 1410.577176 296.268365 1419.98903 289.46945 1426.776424 C 282.670535 1433.563819 273.242706 1437.817253 262.908354 1437.817253 C 242.149 1437.817253 225.287691 1420.984515 225.287691 1400.260337 C 225.287691 1379.44566 242.149 1362.70342 262.908354 1362.70342 Z M 504.315168 1554.741436 C 525.074522 1554.741436 541.935832 1571.483675 541.935832 1592.298352 C 541.935832 1602.70569 537.675179 1612.117544 530.785611 1618.995437 C 523.986696 1625.692333 514.649519 1629.855268 504.315168 1629.855268 C 501.051689 1629.855268 497.878862 1629.402775 494.887339 1628.588288 C 478.751247 1624.425353 466.785157 1609.764581 466.785157 1592.298352 C 466.785157 1586.958935 467.872983 1581.891014 469.867332 1577.366084 C 475.669072 1564.062791 488.904294 1554.741436 504.315168 1554.741436 Z M 504.315168 1554.741436 " stroke="#000000" stroke-width="8.3" stroke-opacity="1" stroke-miterlimit="2.613"/></g><g clip-path="url(#71692ffd45)"><path fill="#000000" d="M 23.730469 101.5 L 47.640625 101.5 L 42.679688 108.902344 C 42.414062 109.300781 42.003906 109.519531 41.523438 109.519531 L 30.585938 109.519531 C 30.140625 109.519531 29.757812 109.332031 29.484375 108.976562 Z M 23.730469 101.5 " fill-opacity="1" fill-rule="evenodd"/></g></g></g></svg>